<svg width="18" height="18" viewBox="0 0 18 18" fill="none" xmlns="http://www.w3.org/2000/svg">
<path fill-rule="evenodd" clip-rule="evenodd" d="M16 0H2C0.9 0 0 0.9 0 2V16C0 17.1 0.9 18 2 18H16C17.1 18 18 17.1 18 16V2C18 0.9 17.1 0 16 0ZM16 2V16H2V2H16ZM3 13.5C3 12.6716 3.67157 12 4.5 12C5.32843 12 6 12.6716 6 13.5C6 14.3284 5.32843 15 4.5 15C3.67157 15 3 14.3284 3 13.5ZM4.5 3C3.67157 3 3 3.67157 3 4.5C3 5.32843 3.67157 6 4.5 6C5.32843 6 6 5.32843 6 4.5C6 3.67157 5.32843 3 4.5 3ZM7.5 9C7.5 8.17157 8.17157 7.5 9 7.5C9.82843 7.5 10.5 8.17157 10.5 9C10.5 9.82843 9.82843 10.5 9 10.5C8.17157 10.5 7.5 9.82843 7.5 9ZM13.5 12C12.6716 12 12 12.6716 12 13.5C12 14.3284 12.6716 15 13.5 15C14.3284 15 15 14.3284 15 13.5C15 12.6716 14.3284 12 13.5 12ZM12 4.5C12 3.67157 12.6716 3 13.5 3C14.3284 3 15 3.67157 15 4.5C15 5.32843 14.3284 6 13.5 6C12.6716 6 12 5.32843 12 4.5Z" fill="black" fill-opacity="0.54"/>
</svg>
